<svg xmlns="http://www.w3.org/2000/svg" xmlns:xlink="http://www.w3.org/1999/xlink" width="500" zoomAndPan="magnify" viewBox="0 0 375 374.999991" height="500" preserveAspectRatio="xMidYMid meet" version="1.0"><defs><g/><clipPath id="96cdbcb0b6"><path d="M 50.527344 37.5 L 328.777344 37.5 L 328.777344 315.75 L 50.527344 315.75 Z M 50.527344 37.5 " clip-rule="nonzero"/></clipPath></defs><g clip-path="url(#96cdbcb0b6)"><path fill="#122620" d="M 189.707031 315.855469 C 112.8125 315.855469 50.527344 253.140625 50.527344 176.675781 C 50.527344 100.214844 112.8125 37.5 189.707031 37.5 C 266.597656 37.5 328.882812 99.785156 328.882812 176.675781 C 328.882812 253.570312 266.167969 315.855469 189.707031 315.855469 Z M 189.707031 46.089844 C 117.539062 46.089844 59.121094 104.511719 59.121094 176.675781 C 59.121094 248.84375 117.539062 307.265625 189.707031 307.265625 C 261.871094 307.265625 320.292969 248.84375 320.292969 176.675781 C 320.292969 104.511719 261.441406 46.089844 189.707031 46.089844 Z M 189.707031 46.089844 " fill-opacity="1" fill-rule="nonzero"/></g><path stroke-linecap="butt" transform="matrix(1.909379, 0, 0, 1.909379, -30.689094, 67.845017)" fill="none" stroke-linejoin="miter" d="M 49.100573 91.017975 C 49.100573 90.698826 49.114893 90.181233 49.141489 89.46315 C 49.18036 88.757341 49.241734 88.053578 49.321521 87.347769 C 49.401308 86.641961 49.466775 86.204155 49.519966 86.03026 C 49.135352 86.083451 48.914403 86.177559 48.861211 86.310537 C 48.80802 86.455791 48.675042 86.721748 48.462276 87.108408 C 48.130853 87.812171 48.004012 88.532301 48.083799 89.262659 C 48.163586 89.995064 48.503192 90.580169 49.100573 91.017975 Z M 55.645158 15.113872 C 55.645158 13.530406 55.763816 12.020589 56.003177 10.584421 C 56.256859 9.135979 56.3837 7.64662 56.3837 6.116345 C 56.3837 5.518965 56.436892 4.786561 56.543274 3.921178 C 56.649657 3.04352 56.729444 2.253833 56.782636 1.548024 C 56.901293 0.79107 56.948347 0.238698 56.921752 -0.107046 C 56.895156 -0.467111 56.960622 -0.739206 57.120196 -0.925375 C 57.279771 -1.125866 57.633698 -1.391823 58.177887 -1.723246 C 58.617738 -1.498206 58.981895 -1.244524 59.274447 -0.966292 C 59.581321 -0.700335 59.734757 -0.213429 59.734757 0.490334 C 59.734757 3.096711 59.661108 5.332795 59.513809 7.194494 C 59.38083 9.041871 59.208981 11.163389 58.996216 13.557001 C 59.434022 13.450619 59.994577 13.252174 60.671744 12.959621 C 61.350957 12.652748 61.936062 12.419524 62.42706 12.25995 C 66.08499 10.784912 70.021152 9.340561 74.237592 7.93099 C 78.451987 6.509143 82.523173 5.445316 86.445015 4.739507 C 87.322672 4.514466 88.891818 4.21373 91.154498 3.841391 C 93.415132 3.456776 95.94786 3.11717 98.754728 2.824617 C 101.55955 2.51979 104.239578 2.366353 106.792764 2.366353 C 109.519845 2.366353 111.821396 2.611852 113.695369 3.104895 C 115.583663 3.595892 116.528833 4.520604 116.528833 5.876984 C 116.528833 7.407259 115.970323 8.569286 114.853304 9.367157 C 113.736285 10.152753 112.631541 10.598742 111.541118 10.705125 C 111.807075 9.946125 112.238743 9.17485 112.838169 8.3913 C 113.435549 7.593429 113.795614 6.834429 113.914272 6.116345 C 113.196188 6.009963 112.551754 5.876984 111.98097 5.71741 C 111.408139 5.557836 110.66346 5.478049 109.744886 5.478049 C 106.966659 5.478049 104.552589 5.504644 102.50472 5.557836 C 100.469127 5.611027 98.533779 5.750143 96.698676 5.977229 C 94.877895 6.189995 92.954821 6.488685 90.933549 6.875345 C 88.926597 7.247685 86.559581 7.759141 83.832499 8.409712 C 83.46016 8.516095 82.615235 8.775914 81.299771 9.189171 C 79.994537 9.600381 78.413116 10.093424 76.551417 10.664209 C 74.701994 11.237039 72.780967 11.861015 70.78629 12.540228 C 68.803888 13.217395 66.929915 13.89047 65.160278 14.555363 C 63.390642 15.205934 61.921742 15.791039 60.751531 16.310678 C 59.581321 16.815996 58.916428 17.23539 58.756854 17.566813 L 56.144339 43.221426 C 56.091148 43.925189 55.990902 44.743518 55.843603 45.674367 C 55.710625 46.605216 55.645158 47.476737 55.645158 48.288928 C 56.242539 48.182545 57.181571 47.869535 58.458164 47.349896 C 59.747032 46.832303 60.798585 46.4661 61.608731 46.253335 C 62.592771 45.919866 63.869364 45.541389 65.440556 45.115858 C 67.021977 44.678052 68.617718 44.264796 70.22778 43.880181 C 71.835797 43.493521 73.132848 43.248022 74.116889 43.141639 C 75.260504 42.982065 76.211811 42.902278 76.970811 42.902278 C 78.392658 42.902278 79.237582 43.174372 79.503539 43.720607 C 79.781771 44.264796 79.781771 45.083125 79.503539 46.173548 C 79.237582 46.226739 79.045275 46.26561 78.924571 46.292206 C 78.818189 46.318801 78.578827 46.359718 78.206488 46.412909 C 78.08783 45.7071 77.754361 45.355219 77.210172 45.355219 C 76.185215 45.355219 74.828835 45.535251 73.138986 45.89327 C 71.451182 46.239014 69.648813 46.672729 67.733923 47.190322 C 65.831308 47.70996 64.010526 48.254149 62.267486 48.826979 C 60.526491 49.397764 59.108736 49.896945 58.018312 50.322476 C 57.633698 50.496371 57.220442 50.662082 56.782636 50.821656 C 56.357105 50.98123 55.896795 51.087613 55.405797 51.140805 L 52.791236 79.747539 C 53.443854 79.694348 54.174212 79.422253 54.986404 78.92921 C 55.81087 78.438213 56.522816 78.084286 57.120196 77.87152 C 59.354234 76.887479 61.68238 76.056876 64.102588 75.377663 C 66.522796 74.700495 68.963462 74.168582 71.424587 73.781921 C 71.915584 73.675538 72.893487 73.524147 74.35625 73.323657 C 75.833334 73.137487 77.615245 72.930859 79.701984 72.705819 C 81.805089 72.493053 84.024807 72.319158 86.365228 72.18618 C 88.705648 72.053201 90.994924 71.987735 93.228962 71.987735 C 96.393849 71.987735 99.106609 72.2005 101.367243 72.626031 C 103.627877 73.063837 104.759217 73.888304 104.759217 75.099431 C 104.759217 75.631345 104.744896 75.962768 104.7183 76.095746 C 104.691705 76.243045 104.60578 76.343291 104.458481 76.396482 C 104.325502 76.449673 104.127058 76.668576 103.861101 77.053191 C 103.580823 76.828151 103.376241 76.594927 103.243262 76.355566 C 103.110284 76.116204 102.836144 75.870706 102.424933 75.617024 C 102.011677 75.377663 101.207669 75.17308 100.010863 74.999185 C 98.214631 74.680037 95.767827 74.520463 92.670452 74.520463 C 89.012522 74.520463 85.156146 74.680037 81.099281 74.999185 C 77.042415 75.332654 73.067382 75.903439 69.17009 76.71563 C 65.272799 77.540097 61.635326 78.683712 58.257674 80.146475 C 57.713485 80.371515 57.261358 80.565868 56.901293 80.725442 C 56.555549 80.885016 56.136156 81.103919 55.645158 81.382151 C 55.205307 81.594917 54.767501 81.795407 54.327649 81.981577 C 53.902118 82.180022 53.550236 82.360054 53.269959 82.519629 C 52.844428 82.799906 52.545737 83.344095 52.373888 84.156286 C 52.214314 84.980753 52.120206 85.852273 52.093611 86.768802 C 52.067015 87.699651 52.028144 88.544576 51.974953 89.303576 C 51.815379 91.150953 51.502368 92.427546 51.035921 93.133355 C 50.571519 93.851439 50.039605 94.209458 49.440179 94.209458 C 48.89599 94.209458 48.32316 93.937363 47.72578 93.393175 C 47.126354 92.84694 46.635357 92.220918 46.248696 91.517155 C 45.864082 90.811347 45.669728 90.213967 45.669728 89.720923 C 45.669728 88.139503 45.849761 86.922238 46.209826 86.071176 C 46.567844 85.232389 46.972917 84.594092 47.425044 84.156286 C 47.891492 83.716435 48.343618 83.33182 48.781424 82.998351 C 49.221276 82.679203 49.519966 82.27413 49.67954 81.781087 C 49.732732 81.568321 49.800244 81.009812 49.880031 80.105558 C 49.959818 79.215625 50.039605 78.211127 50.119392 77.094108 C 50.211454 75.977089 50.285104 74.939857 50.338295 73.982412 C 50.391487 73.037242 50.418082 72.398945 50.418082 72.067522 C 50.418082 71.414905 50.444678 71.003694 50.497869 70.829799 C 50.551061 70.670225 50.604252 70.318344 50.657443 69.772109 C 50.657443 69.334303 50.645168 68.908772 50.618573 68.495516 C 50.591977 68.096581 50.604252 67.679233 50.657443 67.239381 L 51.735592 52.697675 L 44.853445 56.208307 C 44.800254 56.208307 44.460647 56.412889 43.834626 56.826145 C 43.21065 57.239401 42.625545 57.443983 42.07931 57.443983 C 41.535121 57.443983 41.260981 57.092102 41.260981 56.386293 C 41.260981 55.948487 41.600588 55.455444 42.279801 54.911255 C 42.971289 54.365021 43.707785 53.859703 44.493381 53.395301 C 45.278976 52.928853 45.837486 52.617888 46.168909 52.458314 L 52.214314 49.604392 C 52.214314 48.182545 52.267506 46.844578 52.373888 45.59458 C 52.480271 44.344583 52.619387 43.035256 52.791236 41.664555 L 55.066191 18.784078 C 54.522002 19.062309 53.975767 19.342587 53.429533 19.620819 C 52.897619 19.886776 52.332972 20.126137 51.735592 20.338903 L 41.999523 25.406405 C 40.962291 26.005831 39.925059 26.617532 38.887827 27.241507 C 37.86287 27.867529 36.833821 28.538559 35.79659 29.256642 C 35.516312 29.416217 35.250355 29.581928 34.998719 29.755823 C 34.759358 29.915397 34.47908 30.101567 34.159932 30.314333 C 33.8817 30.527098 33.675072 30.69281 33.542093 30.813513 C 33.409115 30.919896 33.175891 31.07947 32.842422 31.292236 C 32.629656 31.398619 32.390295 31.511139 32.124338 31.631842 C 31.846106 31.738225 31.574012 31.791416 31.308055 31.791416 C 30.53678 31.791416 30.15012 31.37816 30.15012 30.553694 C 30.15012 30.060651 30.696354 29.383483 31.786778 28.518101 C 32.877201 27.640443 34.254039 26.691181 35.915247 25.666224 C 37.578501 24.628992 39.2929 23.604035 41.062536 22.593399 C 42.830127 21.582763 44.393135 20.698967 45.749515 19.939967 C 47.120217 19.168692 48.051066 18.677695 48.542063 18.464929 Z M 107.443336 58.102738 C 107.443336 57.278272 107.535398 56.120336 107.721568 54.630978 C 107.922058 53.129344 108.194153 51.599069 108.539896 50.044244 C 108.899961 48.487373 109.325492 47.171909 109.81649 46.093761 C 110.309533 45.003337 110.853722 44.457103 111.453148 44.457103 C 111.825487 44.457103 112.064848 44.483699 112.171231 44.53689 C 112.289889 44.590081 112.484242 44.643273 112.750199 44.696464 C 113.188005 45.615038 113.228921 46.785249 112.868857 48.209141 C 112.523113 49.618713 112.210102 51.1674 111.93187 52.85725 C 111.55953 55.263137 111.24652 57.390792 110.994883 59.240215 C 110.755522 61.087593 110.906913 63.182515 111.453148 65.522936 C 112.263293 65.310171 113.10208 64.633003 113.965417 63.489389 C 114.843075 62.345774 115.702321 60.995531 116.539062 59.43866 C 117.390124 57.883835 118.128666 56.412889 118.754688 55.029913 C 119.378664 53.634662 119.857386 52.583109 120.190855 51.879347 C 120.469087 51.333112 120.743227 50.709136 121.009184 50.003327 C 121.287416 49.299564 121.612702 48.661268 121.985041 48.088438 C 122.371702 47.517653 122.809508 47.231238 123.302551 47.231238 C 123.84674 47.231238 124.12088 47.517653 124.12088 48.088438 C 124.12088 48.661268 123.967443 49.358893 123.66057 50.18336 C 123.368017 50.993505 123.042731 51.811834 122.684713 52.636301 C 122.324648 53.448492 122.038233 54.066331 121.825467 54.491862 C 121.494044 55.144479 120.974405 56.234902 120.270642 57.763132 C 119.564833 59.293407 118.734229 60.901423 117.776785 62.591273 C 116.831615 64.281122 115.802566 65.709106 114.683501 66.879316 C 113.566482 68.051573 112.463784 68.636678 111.373361 68.636678 C 110.602085 68.636678 109.863544 68.28275 109.157735 67.578988 C 108.453972 66.860904 107.987524 65.94233 107.762484 64.825311 C 107.549718 63.708292 107.443336 62.538081 107.443336 61.314679 C 107.443336 60.091278 107.443336 59.021313 107.443336 58.102738 Z M 128.678972 52.218953 C 129.716204 51.672718 130.861865 50.921902 132.111862 49.964457 C 133.374135 49.007012 134.059485 47.875672 134.165868 46.572483 C 133.460059 46.678866 132.709242 47.057343 131.911372 47.70996 C 131.127822 48.360532 130.448609 49.099074 129.875778 49.92354 C 129.304994 50.735732 128.906058 51.498824 128.678972 52.218953 Z M 125.008767 54.172713 C 125.008767 52.816333 125.454756 51.347433 126.346735 49.763966 C 127.250988 48.182545 128.368007 46.832303 129.697792 45.715284 C 131.039851 44.598265 132.363498 44.039755 133.666687 44.039755 C 135.462919 44.039755 136.399906 44.72306 136.479693 46.093761 C 136.573801 47.450141 135.994833 48.919042 134.744836 50.502508 C 134.079943 51.206271 133.095903 52.0246 131.792714 52.955449 C 130.489525 53.874023 129.210886 54.385479 127.960889 54.491862 C 127.960889 55.36952 127.987484 56.146932 128.040676 56.826145 C 128.093867 57.505358 128.47439 58.196846 129.178153 58.900609 C 129.883962 59.618693 130.782078 59.978757 131.872501 59.978757 C 133.294347 59.978757 134.763248 59.532768 136.281248 58.64079 C 137.809478 57.736536 138.979688 56.985719 139.791879 56.386293 C 140.123303 56.108061 140.383122 55.889158 140.569292 55.729584 C 140.767737 55.555689 141.00096 55.363382 141.266917 55.150617 C 142.410532 54.285234 143.128616 53.646937 143.421168 53.235727 C 143.728042 52.822471 143.987861 52.550376 144.200627 52.417398 C 144.425667 52.284419 144.945306 52.218953 145.755452 52.218953 C 145.876155 52.816333 145.921163 53.221406 145.894568 53.434172 C 145.867972 53.646937 145.66339 53.974269 145.276729 54.412075 C 144.292689 55.396115 143.048829 56.513134 141.547195 57.763132 C 140.057836 59.013129 138.453912 60.103553 136.739512 61.034402 C 135.023067 61.965251 133.320943 62.431698 131.63314 62.431698 C 130.755482 62.431698 129.922832 62.286445 129.139282 61.993892 C 128.353686 61.687019 127.60287 61.175563 126.884786 60.45748 C 125.91302 59.485714 125.354511 58.481215 125.209257 57.443983 C 125.076279 56.406751 125.008767 55.316328 125.008767 54.172713 Z M 144.953489 62.750847 C 143.916257 62.750847 143.245228 62.126871 142.938354 60.874828 C 142.645802 59.62483 142.604885 58.063868 142.817651 56.187848 C 143.044737 54.299554 143.443672 52.417398 144.016503 50.541379 C 144.587287 48.653085 145.225584 47.083939 145.931392 45.833941 C 146.635155 44.583944 147.287773 43.959968 147.885153 43.959968 C 148.816002 43.959968 149.255854 44.385499 149.202662 45.236561 C 149.149471 46.073303 148.877377 47.190322 148.384333 48.587618 C 147.89129 49.970594 147.400293 51.492686 146.90725 53.15594 C 146.416252 54.817147 146.170754 56.433347 146.170754 58.002493 L 150.100778 52.038921 C 150.260353 51.719772 150.612234 51.15308 151.156423 50.342934 C 151.702657 49.518467 152.314358 48.75333 152.991526 48.049567 C 153.670739 47.331483 154.335631 46.971419 154.988248 46.971419 C 155.65314 46.971419 156.170734 47.41127 156.543073 48.288928 L 157.042254 52.85725 C 157.042254 53.348247 157.06885 54.113385 157.122041 55.150617 C 157.175232 56.187848 157.29389 57.239401 157.48006 58.303229 C 157.68055 59.367056 157.993561 60.277447 158.419092 61.034402 C 158.856898 61.793402 159.462462 62.171879 160.233737 62.171879 C 161.045928 62.171879 161.89699 61.687019 162.786923 60.715253 C 163.691177 59.731213 164.562697 58.601919 165.401484 57.325326 C 166.252546 56.034412 167.015638 54.905118 167.694851 53.933352 C 168.386339 52.949312 168.918253 52.458314 169.290593 52.458314 C 170.115059 52.458314 170.501719 52.769279 170.448528 53.395301 C 170.395337 54.019277 170.121196 54.745544 169.630199 55.57001 C 169.137156 56.380156 168.631838 57.139156 168.114245 57.842919 C 167.594606 58.548728 167.281595 58.986534 167.175212 59.160428 C 166.790598 59.651426 166.270959 60.277447 165.620387 61.034402 C 164.96777 61.793402 164.284465 62.505348 163.564336 63.17024 C 162.860573 63.820812 162.18136 64.227931 161.530788 64.387505 C 160.984554 64.547079 160.466961 64.626866 159.973917 64.626866 C 158.72392 64.626866 157.733742 64.166556 157.001337 63.250027 C 156.270979 62.319178 155.712469 61.308542 155.325809 60.218119 C 154.78162 58.581461 154.48293 57.124835 154.429739 55.848242 C 154.376547 54.571649 154.376547 53.481225 154.429739 52.576972 C 154.48293 51.672718 154.368364 50.98123 154.090132 50.502508 C 153.437515 50.928039 152.746027 51.799559 152.015668 53.115023 C 151.283264 54.418212 150.518126 55.821646 149.720256 57.325326 C 148.936706 58.814684 148.144972 60.091278 147.347102 61.155105 C 146.561506 62.218933 145.763635 62.750847 144.953489 62.750847 Z M 144.20881 30.553694 C 144.20881 29.847885 144.867565 29.103206 146.183029 28.319656 C 147.488263 27.521785 149.137196 26.744373 151.131873 25.985372 C 153.112229 25.214097 155.207151 24.489876 157.414594 23.810663 C 159.609761 23.133496 161.637171 22.548391 163.498869 22.055348 C 165.348293 21.56435 166.737406 21.183827 167.668255 20.91787 C 168.81187 20.586447 169.609741 20.39414 170.061868 20.338903 C 170.528315 20.285711 170.827005 20.113862 170.959984 19.82131 C 171.107283 19.514436 171.258674 18.896598 171.418248 17.965749 C 171.8581 15.731711 172.363418 14.195298 172.934202 13.358557 C 173.507033 12.507494 174.065542 12.081963 174.611777 12.081963 C 175.049583 12.081963 175.415785 12.313141 175.708337 12.779589 C 176.013165 13.243991 176.166602 13.8025 176.166602 14.455117 C 176.166602 14.946115 176.133868 15.152743 176.066356 15.072956 C 176.013165 14.993169 176.013165 15.173201 176.066356 15.613053 C 176.066356 15.719436 176.080677 15.852414 176.107273 16.011988 C 176.146143 16.171562 176.166602 16.390465 176.166602 16.668697 C 176.166602 17.374506 176.027486 17.726387 175.747208 17.726387 C 175.481251 17.726387 175.209157 17.767304 174.930925 17.847091 C 174.664968 17.926878 174.53199 18.4056 174.53199 19.283258 C 175.182561 19.283258 175.900645 19.18915 176.686241 19.002981 C 177.484111 18.804536 178.181737 18.677695 178.781163 18.624503 C 181.174775 18.184652 183.568387 17.7939 185.961999 17.448156 C 188.355611 17.088091 190.808553 16.908058 193.322868 16.908058 C 194.626057 16.908058 195.577365 17.182199 196.174745 17.726387 C 196.774171 18.272622 196.993074 18.816811 196.833499 19.363045 C 196.673925 19.907234 196.076545 20.179328 195.039313 20.179328 C 194.93293 19.741522 194.859281 19.534894 194.818364 19.56149 C 194.791769 19.588086 194.540133 19.549215 194.06141 19.442832 C 193.834324 19.389641 193.396518 19.363045 192.743901 19.363045 C 191.600286 19.363045 190.084331 19.487841 188.196037 19.741522 C 186.320018 19.980884 184.372395 20.267299 182.351123 20.598722 C 180.342125 20.91787 178.547939 21.230881 176.964472 21.537755 C 175.395327 21.830307 174.364232 22.028752 173.873235 22.135135 L 172.236577 38.892466 C 172.183385 39.277081 172.17111 39.690337 172.197706 40.128143 C 172.224302 40.553674 172.236577 40.987388 172.236577 41.425194 C 172.236577 41.971429 172.197706 42.32331 172.117919 42.482884 C 172.038132 42.642458 171.997216 43.029119 171.997216 43.64082 C 171.997216 44.837626 172.023811 46.212418 172.077003 47.769289 C 172.130194 49.311839 172.103598 50.522966 171.997216 51.400624 C 171.944024 51.891621 171.89697 52.863387 171.8581 54.311829 C 171.831504 55.747997 171.804908 57.417388 171.778313 59.320003 C 171.751717 61.220572 171.737396 63.143645 171.737396 65.08513 C 171.737396 67.012295 171.737396 68.769656 171.737396 70.351077 C 171.737396 71.934543 171.763992 73.078158 171.817183 73.781921 C 171.817183 74.381347 171.884695 75.291738 172.017674 76.51514 C 172.162927 77.738542 172.197706 78.843286 172.117919 79.827326 C 172.038132 80.811367 171.639197 81.302364 170.921113 81.302364 C 169.896156 81.302364 169.27218 80.73158 169.045094 79.587965 C 168.832328 78.44435 168.725946 77.380523 168.725946 76.396482 C 168.566371 74.440676 168.466126 72.153446 168.427256 69.532748 C 168.40066 66.914095 168.40066 64.299534 168.427256 61.693157 C 168.466126 59.074504 168.486584 56.785229 168.486584 54.831468 L 168.725946 50.98123 C 168.725946 50.22223 168.725946 49.05202 168.725946 47.470599 C 168.725946 45.887133 168.752541 44.211604 168.805733 42.444014 C 168.858924 40.674377 168.912115 39.058178 168.965307 37.595415 C 169.018498 36.120377 169.098285 35.081099 169.204668 34.483719 C 169.325372 33.937484 169.396975 33.286913 169.423571 32.527912 C 169.450167 31.756637 169.491083 31.099928 169.544275 30.553694 L 170.282816 22.953464 C 170.05573 23.006655 169.577008 23.119175 168.846649 23.29307 C 168.114245 23.452644 167.529139 23.585623 167.089288 23.692006 C 164.417444 24.342577 161.870395 25.040202 159.450187 25.786928 C 157.029979 26.517286 154.536121 27.374486 151.968614 28.358526 C 151.477617 28.571292 151.031628 28.804516 150.632692 29.058198 C 150.219436 29.297559 149.767309 29.522599 149.276312 29.735365 C 148.623695 30.015643 148.206347 30.20795 148.020177 30.314333 C 147.819687 30.420715 147.719441 30.559831 147.719441 30.733726 C 147.719441 30.8933 147.586463 31.245182 147.320506 31.791416 C 147.095465 31.844608 146.874517 31.883478 146.661751 31.910074 C 146.448986 31.93667 146.203487 31.950991 145.925255 31.950991 C 145.485403 31.950991 145.092605 31.856883 144.746861 31.670713 C 144.388842 31.472268 144.20881 31.099928 144.20881 30.553694 Z M 144.20881 30.553694 " stroke="#fffef9" stroke-width="6.128468" stroke-opacity="1" stroke-miterlimit="4"/><g fill="#122620" fill-opacity="1"><g transform="translate(33.125927, 195.7734)"><g><path d="M 29.953125 45.875 C 29.953125 45.25 29.976562 44.257812 30.03125 42.90625 C 30.082031 41.550781 30.1875 40.195312 30.34375 38.84375 C 30.5 37.488281 30.628906 36.660156 30.734375 36.359375 C 30.003906 36.453125 29.585938 36.628906 29.484375 36.890625 C 29.378906 37.148438 29.117188 37.644531 28.703125 38.375 C 28.078125 39.726562 27.84375 41.109375 28 42.515625 C 28.15625 43.921875 28.804688 45.039062 29.953125 45.875 Z M 42.4375 -99.0625 C 42.4375 -102.082031 42.671875 -104.96875 43.140625 -107.71875 C 43.609375 -110.476562 43.84375 -113.316406 43.84375 -116.234375 C 43.84375 -117.378906 43.945312 -118.78125 44.15625 -120.4375 C 44.363281 -122.101562 44.519531 -123.613281 44.625 -124.96875 C 44.832031 -126.425781 44.910156 -127.492188 44.859375 -128.171875 C 44.804688 -128.847656 44.9375 -129.363281 45.25 -129.71875 C 45.5625 -130.082031 46.234375 -130.578125 47.265625 -131.203125 C 48.097656 -130.785156 48.800781 -130.316406 49.375 -129.796875 C 49.945312 -129.285156 50.234375 -128.351562 50.234375 -127 C 50.234375 -122.007812 50.101562 -117.742188 49.84375 -114.203125 C 49.582031 -110.671875 49.242188 -106.613281 48.828125 -102.03125 C 49.660156 -102.238281 50.726562 -102.628906 52.03125 -103.203125 C 53.332031 -103.773438 54.453125 -104.21875 55.390625 -104.53125 C 62.359375 -107.34375 69.867188 -110.097656 77.921875 -112.796875 C 85.984375 -115.503906 93.757812 -117.535156 101.25 -118.890625 C 102.914062 -119.304688 105.90625 -119.875 110.21875 -120.59375 C 114.539062 -121.320312 119.378906 -121.972656 124.734375 -122.546875 C 130.085938 -123.117188 135.210938 -123.40625 140.109375 -123.40625 C 145.304688 -123.40625 149.695312 -122.9375 153.28125 -122 C 156.875 -121.0625 158.671875 -119.296875 158.671875 -116.703125 C 158.671875 -113.785156 157.601562 -111.570312 155.46875 -110.0625 C 153.332031 -108.5625 151.226562 -107.707031 149.15625 -107.5 C 149.675781 -108.945312 150.503906 -110.425781 151.640625 -111.9375 C 152.785156 -113.445312 153.460938 -114.878906 153.671875 -116.234375 C 152.316406 -116.441406 151.09375 -116.703125 150 -117.015625 C 148.914062 -117.328125 147.488281 -117.484375 145.71875 -117.484375 C 140.414062 -117.484375 135.8125 -117.429688 131.90625 -117.328125 C 128.007812 -117.222656 124.316406 -116.960938 120.828125 -116.546875 C 117.347656 -116.128906 113.679688 -115.554688 109.828125 -114.828125 C 105.984375 -114.097656 101.460938 -113.109375 96.265625 -111.859375 C 95.535156 -111.648438 93.921875 -111.15625 91.421875 -110.375 C 88.929688 -109.601562 85.914062 -108.671875 82.375 -107.578125 C 78.84375 -106.484375 75.175781 -105.285156 71.375 -103.984375 C 67.582031 -102.679688 63.992188 -101.40625 60.609375 -100.15625 C 57.234375 -98.914062 54.425781 -97.800781 52.1875 -96.8125 C 49.945312 -95.820312 48.671875 -95.015625 48.359375 -94.390625 L 43.375 -45.40625 C 43.269531 -44.050781 43.085938 -42.488281 42.828125 -40.71875 C 42.566406 -38.945312 42.4375 -37.285156 42.4375 -35.734375 C 43.582031 -35.941406 45.375 -36.535156 47.8125 -37.515625 C 50.257812 -38.503906 52.265625 -39.207031 53.828125 -39.625 C 55.703125 -40.25 58.144531 -40.976562 61.15625 -41.8125 C 64.175781 -42.644531 67.21875 -43.425781 70.28125 -44.15625 C 73.351562 -44.882812 75.828125 -45.351562 77.703125 -45.5625 C 79.878906 -45.875 81.695312 -46.03125 83.15625 -46.03125 C 85.863281 -46.03125 87.472656 -45.507812 87.984375 -44.46875 C 88.503906 -43.425781 88.507812 -41.863281 88 -39.78125 C 87.476562 -39.675781 87.113281 -39.597656 86.90625 -39.546875 C 86.695312 -39.492188 86.226562 -39.414062 85.5 -39.3125 C 85.289062 -40.664062 84.664062 -41.34375 83.625 -41.34375 C 81.644531 -41.34375 79.039062 -41.003906 75.8125 -40.328125 C 72.59375 -39.648438 69.160156 -38.816406 65.515625 -37.828125 C 61.878906 -36.847656 58.394531 -35.8125 55.0625 -34.71875 C 51.738281 -33.625 49.035156 -32.660156 46.953125 -31.828125 C 46.234375 -31.515625 45.457031 -31.203125 44.625 -30.890625 C 43.789062 -30.578125 42.90625 -30.367188 41.96875 -30.265625 L 36.96875 24.34375 C 38.21875 24.238281 39.625 23.71875 41.1875 22.78125 C 42.75 21.84375 44.101562 21.164062 45.25 20.75 C 49.507812 18.875 53.953125 17.285156 58.578125 15.984375 C 63.210938 14.691406 67.867188 13.679688 72.546875 12.953125 C 73.484375 12.742188 75.351562 12.457031 78.15625 12.09375 C 80.96875 11.726562 84.375 11.335938 88.375 10.921875 C 92.382812 10.503906 96.625 10.164062 101.09375 9.90625 C 105.570312 9.644531 109.941406 9.515625 114.203125 9.515625 C 120.234375 9.515625 125.40625 9.929688 129.71875 10.765625 C 134.039062 11.597656 136.203125 13.160156 136.203125 15.453125 C 136.203125 16.484375 136.175781 17.128906 136.125 17.390625 C 136.070312 17.648438 135.914062 17.832031 135.65625 17.9375 C 135.394531 18.039062 135.003906 18.457031 134.484375 19.1875 C 133.960938 18.769531 133.570312 18.328125 133.3125 17.859375 C 133.050781 17.390625 132.53125 16.921875 131.75 16.453125 C 130.96875 15.984375 129.4375 15.597656 127.15625 15.296875 C 123.71875 14.671875 119.035156 14.359375 113.109375 14.359375 C 106.140625 14.359375 98.78125 14.664062 91.03125 15.28125 C 83.28125 15.90625 75.6875 17 68.25 18.5625 C 60.820312 20.125 53.878906 22.3125 47.421875 25.125 C 46.390625 25.539062 45.535156 25.898438 44.859375 26.203125 C 44.179688 26.515625 43.375 26.929688 42.4375 27.453125 C 41.601562 27.867188 40.769531 28.257812 39.9375 28.625 C 39.101562 28.988281 38.425781 29.328125 37.90625 29.640625 C 37.070312 30.160156 36.5 31.203125 36.1875 32.765625 C 35.882812 34.328125 35.707031 35.988281 35.65625 37.75 C 35.601562 39.519531 35.523438 41.132812 35.421875 42.59375 C 35.109375 46.125 34.507812 48.566406 33.625 49.921875 C 32.738281 51.273438 31.722656 51.953125 30.578125 51.953125 C 29.535156 51.953125 28.441406 51.429688 27.296875 50.390625 C 26.160156 49.347656 25.226562 48.148438 24.5 46.796875 C 23.769531 45.453125 23.40625 44.3125 23.40625 43.375 C 23.40625 40.351562 23.742188 38.035156 24.421875 36.421875 C 25.097656 34.816406 25.875 33.597656 26.75 32.765625 C 27.632812 31.929688 28.492188 31.203125 29.328125 30.578125 C 30.160156 29.953125 30.734375 29.171875 31.046875 28.234375 C 31.148438 27.816406 31.28125 26.75 31.4375 25.03125 C 31.59375 23.320312 31.75 21.398438 31.90625 19.265625 C 32.0625 17.128906 32.191406 15.148438 32.296875 13.328125 C 32.398438 11.515625 32.453125 10.296875 32.453125 9.671875 C 32.453125 8.421875 32.503906 7.640625 32.609375 7.328125 C 32.710938 7.015625 32.816406 6.335938 32.921875 5.296875 C 32.921875 4.472656 32.894531 3.671875 32.84375 2.890625 C 32.789062 2.109375 32.816406 1.300781 32.921875 0.46875 L 34.953125 -27.296875 L 21.84375 -20.59375 C 21.738281 -20.59375 21.085938 -20.203125 19.890625 -19.421875 C 18.691406 -18.640625 17.570312 -18.25 16.53125 -18.25 C 15.5 -18.25 14.984375 -18.925781 14.984375 -20.28125 C 14.984375 -21.113281 15.628906 -22.050781 16.921875 -23.09375 C 18.222656 -24.132812 19.628906 -25.09375 21.140625 -25.96875 C 22.648438 -26.851562 23.71875 -27.453125 24.34375 -27.765625 L 35.890625 -33.234375 C 35.890625 -35.929688 35.988281 -38.476562 36.1875 -40.875 C 36.394531 -43.269531 36.65625 -45.765625 36.96875 -48.359375 L 41.34375 -92.046875 C 40.300781 -91.523438 39.257812 -91.003906 38.21875 -90.484375 C 37.175781 -89.960938 36.085938 -89.492188 34.953125 -89.078125 L 16.375 -79.40625 C 14.40625 -78.269531 12.429688 -77.101562 10.453125 -75.90625 C 8.472656 -74.707031 6.5 -73.429688 4.53125 -72.078125 C 4.007812 -71.765625 3.515625 -71.453125 3.046875 -71.140625 C 2.578125 -70.828125 2.03125 -70.460938 1.40625 -70.046875 C 0.882812 -69.628906 0.492188 -69.316406 0.234375 -69.109375 C -0.0234375 -68.898438 -0.46875 -68.585938 -1.09375 -68.171875 C -1.507812 -67.960938 -1.976562 -67.753906 -2.5 -67.546875 C -3.019531 -67.347656 -3.539062 -67.25 -4.0625 -67.25 C -5.507812 -67.25 -6.234375 -68.023438 -6.234375 -69.578125 C -6.234375 -70.515625 -5.191406 -71.816406 -3.109375 -73.484375 C -1.035156 -75.148438 1.582031 -76.96875 4.75 -78.9375 C 7.925781 -80.914062 11.203125 -82.867188 14.578125 -84.796875 C 17.960938 -86.722656 20.953125 -88.410156 23.546875 -89.859375 C 26.148438 -91.316406 27.921875 -92.253906 28.859375 -92.671875 Z M 42.4375 -99.0625 "/></g></g></g><g fill="#122620" fill-opacity="1"><g transform="translate(174.308054, 195.7734)"><g><path d="M 0.15625 -17 C 0.15625 -18.5625 0.335938 -20.769531 0.703125 -23.625 C 1.066406 -26.488281 1.585938 -29.398438 2.265625 -32.359375 C 2.941406 -35.328125 3.742188 -37.851562 4.671875 -39.9375 C 5.609375 -42.019531 6.648438 -43.0625 7.796875 -43.0625 C 8.523438 -43.0625 8.992188 -43.007812 9.203125 -42.90625 C 9.410156 -42.800781 9.773438 -42.695312 10.296875 -42.59375 C 11.128906 -40.820312 11.207031 -38.582031 10.53125 -35.875 C 9.851562 -33.175781 9.253906 -30.210938 8.734375 -26.984375 C 8.003906 -22.410156 7.40625 -18.351562 6.9375 -14.8125 C 6.46875 -11.28125 6.753906 -7.28125 7.796875 -2.8125 C 9.359375 -3.226562 10.972656 -4.523438 12.640625 -6.703125 C 14.304688 -8.890625 15.941406 -11.460938 17.546875 -14.421875 C 19.160156 -17.390625 20.566406 -20.195312 21.765625 -22.84375 C 22.960938 -25.5 23.875 -27.503906 24.5 -28.859375 C 25.019531 -29.898438 25.535156 -31.097656 26.046875 -32.453125 C 26.566406 -33.804688 27.191406 -35.023438 27.921875 -36.109375 C 28.648438 -37.203125 29.484375 -37.75 30.421875 -37.75 C 31.460938 -37.75 31.984375 -37.203125 31.984375 -36.109375 C 31.984375 -35.023438 31.695312 -33.703125 31.125 -32.140625 C 30.550781 -30.578125 29.925781 -29.015625 29.25 -27.453125 C 28.570312 -25.898438 28.023438 -24.707031 27.609375 -23.875 C 26.984375 -22.625 25.992188 -20.539062 24.640625 -17.625 C 23.296875 -14.71875 21.710938 -11.648438 19.890625 -8.421875 C 18.066406 -5.203125 16.085938 -2.472656 13.953125 -0.234375 C 11.828125 2.003906 9.722656 3.125 7.640625 3.125 C 6.179688 3.125 4.78125 2.445312 3.4375 1.09375 C 2.082031 -0.257812 1.195312 -2 0.78125 -4.125 C 0.363281 -6.257812 0.15625 -8.5 0.15625 -10.84375 C 0.15625 -13.1875 0.15625 -15.238281 0.15625 -17 Z M 0.15625 -17 "/></g></g></g><g fill="#122620" fill-opacity="1"><g transform="translate(207.848571, 195.7734)"><g><path d="M 7.171875 -28.234375 C 9.148438 -29.273438 11.332031 -30.707031 13.71875 -32.53125 C 16.113281 -34.351562 17.414062 -36.507812 17.625 -39 C 16.28125 -38.789062 14.851562 -38.0625 13.34375 -36.8125 C 11.832031 -35.570312 10.53125 -34.171875 9.4375 -32.609375 C 8.34375 -31.046875 7.585938 -29.585938 7.171875 -28.234375 Z M 0.15625 -24.5 C 0.15625 -27.09375 1.007812 -29.894531 2.71875 -32.90625 C 4.4375 -35.925781 6.570312 -38.503906 9.125 -40.640625 C 11.675781 -42.773438 14.195312 -43.84375 16.6875 -43.84375 C 20.125 -43.84375 21.921875 -42.539062 22.078125 -39.9375 C 22.234375 -37.34375 21.113281 -34.535156 18.71875 -31.515625 C 17.46875 -30.160156 15.59375 -28.597656 13.09375 -26.828125 C 10.601562 -25.066406 8.160156 -24.082031 5.765625 -23.875 C 5.765625 -22.207031 5.816406 -20.722656 5.921875 -19.421875 C 6.023438 -18.117188 6.753906 -16.796875 8.109375 -15.453125 C 9.460938 -14.097656 11.179688 -13.421875 13.265625 -13.421875 C 15.960938 -13.421875 18.765625 -14.273438 21.671875 -15.984375 C 24.585938 -17.703125 26.828125 -19.132812 28.390625 -20.28125 C 29.015625 -20.800781 29.507812 -21.21875 29.875 -21.53125 C 30.238281 -21.84375 30.679688 -22.207031 31.203125 -22.625 C 33.390625 -24.289062 34.769531 -25.507812 35.34375 -26.28125 C 35.914062 -27.0625 36.40625 -27.582031 36.8125 -27.84375 C 37.226562 -28.101562 38.21875 -28.234375 39.78125 -28.234375 C 39.988281 -27.085938 40.066406 -26.304688 40.015625 -25.890625 C 39.960938 -25.484375 39.570312 -24.863281 38.84375 -24.03125 C 36.976562 -22.15625 34.613281 -20.019531 31.75 -17.625 C 28.882812 -15.238281 25.8125 -13.160156 22.53125 -11.390625 C 19.257812 -9.617188 16.015625 -8.734375 12.796875 -8.734375 C 11.128906 -8.734375 9.539062 -9.019531 8.03125 -9.59375 C 6.519531 -10.164062 5.09375 -11.128906 3.75 -12.484375 C 1.875 -14.359375 0.804688 -16.28125 0.546875 -18.25 C 0.285156 -20.226562 0.15625 -22.3125 0.15625 -24.5 Z M 0.15625 -24.5 "/></g></g></g><g fill="#122620" fill-opacity="1"><g transform="translate(241.701093, 195.7734)"><g><path d="M 4.375 -8.109375 C 2.394531 -8.109375 1.117188 -9.304688 0.546875 -11.703125 C -0.0234375 -14.097656 -0.101562 -17.085938 0.3125 -20.671875 C 0.726562 -24.253906 1.484375 -27.835938 2.578125 -31.421875 C 3.671875 -35.015625 4.890625 -38.007812 6.234375 -40.40625 C 7.585938 -42.800781 8.835938 -44 9.984375 -44 C 11.753906 -44 12.585938 -43.191406 12.484375 -41.578125 C 12.378906 -39.960938 11.859375 -37.828125 10.921875 -35.171875 C 9.984375 -32.523438 9.046875 -29.613281 8.109375 -26.4375 C 7.171875 -23.269531 6.703125 -20.175781 6.703125 -17.15625 L 14.203125 -28.546875 C 14.515625 -29.171875 15.1875 -30.265625 16.21875 -31.828125 C 17.257812 -33.390625 18.429688 -34.84375 19.734375 -36.1875 C 21.035156 -37.539062 22.3125 -38.21875 23.5625 -38.21875 C 24.8125 -38.21875 25.796875 -37.390625 26.515625 -35.734375 L 27.453125 -26.984375 C 27.453125 -26.054688 27.503906 -24.601562 27.609375 -22.625 C 27.710938 -20.644531 27.945312 -18.640625 28.3125 -16.609375 C 28.675781 -14.585938 29.273438 -12.847656 30.109375 -11.390625 C 30.941406 -9.929688 32.085938 -9.203125 33.546875 -9.203125 C 35.109375 -9.203125 36.742188 -10.140625 38.453125 -12.015625 C 40.171875 -13.890625 41.835938 -16.046875 43.453125 -18.484375 C 45.066406 -20.929688 46.519531 -23.085938 47.8125 -24.953125 C 49.113281 -26.828125 50.128906 -27.765625 50.859375 -27.765625 C 52.421875 -27.765625 53.148438 -27.164062 53.046875 -25.96875 C 52.941406 -24.78125 52.421875 -23.40625 51.484375 -21.84375 C 50.546875 -20.28125 49.582031 -18.820312 48.59375 -17.46875 C 47.601562 -16.125 47.007812 -15.296875 46.8125 -14.984375 C 46.082031 -14.046875 45.09375 -12.847656 43.84375 -11.390625 C 42.59375 -9.929688 41.289062 -8.578125 39.9375 -7.328125 C 38.582031 -6.078125 37.285156 -5.300781 36.046875 -5 C 35.003906 -4.6875 34.015625 -4.53125 33.078125 -4.53125 C 30.679688 -4.53125 28.78125 -5.410156 27.375 -7.171875 C 25.976562 -8.941406 24.914062 -10.867188 24.1875 -12.953125 C 23.144531 -16.066406 22.570312 -18.847656 22.46875 -21.296875 C 22.363281 -23.742188 22.363281 -25.820312 22.46875 -27.53125 C 22.570312 -29.25 22.363281 -30.578125 21.84375 -31.515625 C 20.59375 -30.679688 19.265625 -29.015625 17.859375 -26.515625 C 16.453125 -24.023438 14.992188 -21.347656 13.484375 -18.484375 C 11.984375 -15.628906 10.476562 -13.1875 8.96875 -11.15625 C 7.457031 -9.125 5.925781 -8.109375 4.375 -8.109375 Z M 4.375 -8.109375 "/></g></g></g><g fill="#122620" fill-opacity="1"><g transform="translate(288.501793, 195.7734)"><g><path d="M -43.84375 -69.578125 C -43.84375 -70.929688 -42.59375 -72.363281 -40.09375 -73.875 C -37.601562 -75.382812 -34.457031 -76.863281 -30.65625 -78.3125 C -26.863281 -79.769531 -22.859375 -81.148438 -18.640625 -82.453125 C -14.429688 -83.753906 -10.554688 -84.875 -7.015625 -85.8125 C -3.484375 -86.75 -0.832031 -87.476562 0.9375 -88 C 3.125 -88.613281 4.65625 -88.972656 5.53125 -89.078125 C 6.414062 -89.179688 6.988281 -89.519531 7.25 -90.09375 C 7.507812 -90.664062 7.796875 -91.835938 8.109375 -93.609375 C 8.941406 -97.867188 9.90625 -100.804688 11 -102.421875 C 12.09375 -104.035156 13.160156 -104.84375 14.203125 -104.84375 C 15.035156 -104.84375 15.734375 -104.398438 16.296875 -103.515625 C 16.867188 -102.628906 17.15625 -101.5625 17.15625 -100.3125 C 17.15625 -99.375 17.101562 -98.984375 17 -99.140625 C 16.894531 -99.296875 16.894531 -98.960938 17 -98.140625 C 17 -97.929688 17.023438 -97.671875 17.078125 -97.359375 C 17.128906 -97.046875 17.15625 -96.628906 17.15625 -96.109375 C 17.15625 -94.753906 16.894531 -94.078125 16.375 -94.078125 C 15.863281 -94.078125 15.347656 -94 14.828125 -93.84375 C 14.304688 -93.6875 14.046875 -92.773438 14.046875 -91.109375 C 15.285156 -91.109375 16.660156 -91.289062 18.171875 -91.65625 C 19.679688 -92.019531 21.007812 -92.253906 22.15625 -92.359375 C 26.726562 -93.191406 31.300781 -93.945312 35.875 -94.625 C 40.457031 -95.300781 45.140625 -95.640625 49.921875 -95.640625 C 52.421875 -95.640625 54.242188 -95.117188 55.390625 -94.078125 C 56.535156 -93.035156 56.953125 -91.992188 56.640625 -90.953125 C 56.328125 -89.910156 55.179688 -89.390625 53.203125 -89.390625 C 52.992188 -90.222656 52.863281 -90.613281 52.8125 -90.5625 C 52.757812 -90.507812 52.265625 -90.585938 51.328125 -90.796875 C 50.910156 -90.898438 50.078125 -90.953125 48.828125 -90.953125 C 46.648438 -90.953125 43.765625 -90.71875 40.171875 -90.25 C 36.585938 -89.78125 32.867188 -89.234375 29.015625 -88.609375 C 25.171875 -87.992188 21.738281 -87.398438 18.71875 -86.828125 C 15.707031 -86.253906 13.734375 -85.863281 12.796875 -85.65625 L 9.671875 -53.671875 C 9.566406 -52.941406 9.539062 -52.160156 9.59375 -51.328125 C 9.644531 -50.492188 9.671875 -49.660156 9.671875 -48.828125 C 9.671875 -47.785156 9.59375 -47.109375 9.4375 -46.796875 C 9.28125 -46.492188 9.203125 -45.769531 9.203125 -44.625 C 9.203125 -42.332031 9.253906 -39.703125 9.359375 -36.734375 C 9.460938 -33.773438 9.410156 -31.460938 9.203125 -29.796875 C 9.097656 -28.859375 9.019531 -27.007812 8.96875 -24.25 C 8.914062 -21.5 8.863281 -18.300781 8.8125 -14.65625 C 8.757812 -11.019531 8.734375 -7.351562 8.734375 -3.65625 C 8.734375 0.03125 8.734375 3.378906 8.734375 6.390625 C 8.734375 9.410156 8.785156 11.597656 8.890625 12.953125 C 8.890625 14.097656 9.019531 15.835938 9.28125 18.171875 C 9.539062 20.515625 9.59375 22.617188 9.4375 24.484375 C 9.28125 26.359375 8.523438 27.296875 7.171875 27.296875 C 5.203125 27.296875 4.007812 26.203125 3.59375 24.015625 C 3.175781 21.835938 2.96875 19.8125 2.96875 17.9375 C 2.65625 14.195312 2.472656 9.828125 2.421875 4.828125 C 2.367188 -0.160156 2.367188 -5.148438 2.421875 -10.140625 C 2.472656 -15.128906 2.5 -19.5 2.5 -23.25 L 2.96875 -30.578125 C 2.96875 -32.035156 2.96875 -34.269531 2.96875 -37.28125 C 2.96875 -40.300781 3.019531 -43.5 3.125 -46.875 C 3.226562 -50.257812 3.332031 -53.351562 3.4375 -56.15625 C 3.539062 -58.96875 3.695312 -60.945312 3.90625 -62.09375 C 4.113281 -63.132812 4.242188 -64.378906 4.296875 -65.828125 C 4.347656 -67.285156 4.425781 -68.535156 4.53125 -69.578125 L 5.921875 -84.09375 C 5.503906 -83.988281 4.59375 -83.78125 3.1875 -83.46875 C 1.789062 -83.15625 0.675781 -82.894531 -0.15625 -82.6875 C -5.25 -81.4375 -10.109375 -80.109375 -14.734375 -78.703125 C -19.367188 -77.304688 -24.128906 -75.671875 -29.015625 -73.796875 C -29.953125 -73.378906 -30.8125 -72.9375 -31.59375 -72.46875 C -32.375 -72 -33.234375 -71.554688 -34.171875 -71.140625 C -35.421875 -70.617188 -36.222656 -70.253906 -36.578125 -70.046875 C -36.941406 -69.835938 -37.125 -69.578125 -37.125 -69.265625 C -37.125 -68.953125 -37.382812 -68.28125 -37.90625 -67.25 C -38.320312 -67.144531 -38.738281 -67.066406 -39.15625 -67.015625 C -39.570312 -66.960938 -40.039062 -66.9375 -40.5625 -66.9375 C -41.394531 -66.9375 -42.148438 -67.113281 -42.828125 -67.46875 C -43.503906 -67.832031 -43.84375 -68.535156 -43.84375 -69.578125 Z M -43.84375 -69.578125 "/></g></g></g><path fill="#fffef9" d="M 308.742188 270.269531 C 306.980469 272.5 305.15625 274.679688 303.269531 276.808594 C 301.382812 278.941406 299.441406 281.015625 297.4375 283.035156 C 295.4375 285.054688 293.378906 287.015625 291.265625 288.921875 C 289.152344 290.824219 286.988281 292.667969 284.773438 294.453125 C 282.558594 296.234375 280.292969 297.953125 277.980469 299.609375 C 275.667969 301.261719 273.308594 302.851562 270.90625 304.375 C 268.503906 305.898438 266.0625 307.351562 263.578125 308.738281 C 261.09375 310.121094 258.574219 311.4375 256.015625 312.679688 C 253.457031 313.921875 250.867188 315.09375 248.242188 316.191406 C 245.617188 317.289062 242.964844 318.3125 240.285156 319.257812 C 237.601562 320.207031 234.898438 321.082031 232.167969 321.875 C 229.4375 322.671875 226.683594 323.390625 223.914062 324.03125 C 221.144531 324.675781 218.355469 325.238281 215.554688 325.722656 C 212.75 326.207031 209.9375 326.613281 207.113281 326.9375 C 204.285156 327.265625 201.453125 327.511719 198.617188 327.679688 C 195.777344 327.847656 192.933594 327.933594 190.089844 327.941406 C 187.246094 327.949219 184.402344 327.875 181.5625 327.722656 C 178.722656 327.570312 175.890625 327.335938 173.0625 327.027344 C 170.238281 326.714844 167.421875 326.320312 164.617188 325.851562 C 161.8125 325.382812 159.019531 324.832031 156.246094 324.203125 C 153.472656 323.578125 150.71875 322.871094 147.984375 322.089844 C 145.25 321.308594 142.539062 320.449219 139.851562 319.515625 C 137.167969 318.582031 134.507812 317.570312 131.878906 316.488281 C 129.25 315.402344 126.652344 314.246094 124.089844 313.015625 C 121.523438 311.785156 118.996094 310.484375 116.507812 309.109375 C 114.015625 307.738281 111.566406 306.296875 109.15625 304.785156 C 106.746094 303.277344 104.378906 301.699219 102.058594 300.054688 C 99.738281 298.414062 97.464844 296.703125 95.238281 294.933594 C 93.011719 293.164062 90.839844 291.328125 88.71875 289.4375 C 86.59375 287.542969 84.527344 285.589844 82.515625 283.582031 C 80.503906 281.570312 78.546875 279.507812 76.652344 277.386719 C 74.757812 275.265625 72.921875 273.09375 71.148438 270.871094 L 97.574219 249.78125 C 98.953125 251.507812 100.378906 253.195312 101.851562 254.84375 C 103.328125 256.492188 104.84375 258.09375 106.410156 259.65625 C 107.972656 261.21875 109.578125 262.734375 111.230469 264.207031 C 112.878906 265.679688 114.566406 267.101562 116.296875 268.480469 C 118.027344 269.855469 119.792969 271.183594 121.597656 272.460938 C 123.398438 273.734375 125.238281 274.960938 127.109375 276.136719 C 128.984375 277.308594 130.886719 278.429688 132.824219 279.496094 C 134.757812 280.5625 136.722656 281.574219 138.714844 282.53125 C 140.707031 283.484375 142.726562 284.382812 144.769531 285.226562 C 146.8125 286.070312 148.878906 286.855469 150.964844 287.582031 C 153.054688 288.308594 155.160156 288.972656 157.285156 289.582031 C 159.410156 290.191406 161.550781 290.738281 163.707031 291.226562 C 165.859375 291.710938 168.027344 292.140625 170.207031 292.503906 C 172.386719 292.871094 174.578125 293.175781 176.773438 293.417969 C 178.96875 293.660156 181.171875 293.839844 183.378906 293.957031 C 185.585938 294.078125 187.792969 294.132812 190.003906 294.128906 C 192.214844 294.121094 194.421875 294.054688 196.628906 293.925781 C 198.835938 293.792969 201.035156 293.601562 203.230469 293.347656 C 205.425781 293.097656 207.613281 292.78125 209.792969 292.402344 C 211.96875 292.027344 214.136719 291.589844 216.289062 291.089844 C 218.441406 290.59375 220.578125 290.035156 222.699219 289.414062 C 224.824219 288.796875 226.925781 288.117188 229.007812 287.382812 C 231.09375 286.644531 233.152344 285.851562 235.191406 284.996094 C 237.230469 284.144531 239.246094 283.234375 241.234375 282.269531 C 243.222656 281.300781 245.179688 280.28125 247.109375 279.203125 C 249.039062 278.128906 250.9375 277 252.804688 275.816406 C 254.671875 274.632812 256.503906 273.398438 258.300781 272.109375 C 260.097656 270.824219 261.859375 269.488281 263.582031 268.105469 C 265.304688 266.71875 266.984375 265.285156 268.625 263.804688 C 270.269531 262.328125 271.867188 260.800781 273.421875 259.230469 C 274.980469 257.664062 276.488281 256.050781 277.953125 254.394531 C 279.417969 252.742188 280.835938 251.046875 282.207031 249.3125 Z M 308.742188 270.269531 " fill-opacity="1" fill-rule="nonzero"/><g fill="#122620" fill-opacity="1"><g transform="translate(82.289508, 270.313933)"><g><path d="M 19.078125 -0.125 L 13.40625 -6.03125 L 10 -2.78125 L 15.140625 2.578125 L 13.375 4.265625 L 8.234375 -1.09375 L 3.390625 3.546875 L 1.484375 1.546875 L 13.28125 -9.75 L 20.875 -1.8125 Z M 19.078125 -0.125 "/></g></g></g><g fill="#122620" fill-opacity="1"><g transform="translate(107.592674, 293.355544)"><g><path d="M 10.140625 -10.25 C 12.390625 -10.738281 14.554688 -10.34375 16.640625 -9.0625 C 18.722656 -7.789062 20.0625 -6.046875 20.65625 -3.828125 C 21.25 -1.617188 20.9375 0.476562 19.71875 2.46875 C 18.5 4.457031 16.765625 5.695312 14.515625 6.1875 C 12.265625 6.6875 10.097656 6.296875 8.015625 5.015625 C 5.929688 3.742188 4.59375 2 4 -0.21875 C 3.414062 -2.445312 3.734375 -4.554688 4.953125 -6.546875 C 6.171875 -8.535156 7.898438 -9.769531 10.140625 -10.25 Z M 15.359375 -6.9375 C 13.972656 -7.789062 12.5 -8.039062 10.9375 -7.6875 C 9.375 -7.34375 8.171875 -6.476562 7.328125 -5.09375 C 6.484375 -3.71875 6.265625 -2.242188 6.671875 -0.671875 C 7.078125 0.890625 7.957031 2.085938 9.3125 2.921875 C 10.675781 3.753906 12.140625 3.988281 13.703125 3.625 C 15.265625 3.257812 16.46875 2.382812 17.3125 1 C 18.15625 -0.375 18.378906 -1.832031 17.984375 -3.375 C 17.585938 -4.925781 16.710938 -6.113281 15.359375 -6.9375 Z M 15.359375 -6.9375 "/></g></g></g><g fill="#122620" fill-opacity="1"><g transform="translate(143.006155, 311.541697)"><g><path d="M 19.859375 -11.40625 L 17.265625 -2.1875 C 16.691406 -0.132812 15.628906 1.3125 14.078125 2.15625 C 12.535156 3 10.703125 3.117188 8.578125 2.515625 C 6.453125 1.921875 4.945312 0.863281 4.0625 -0.65625 C 3.175781 -2.175781 3.019531 -3.960938 3.59375 -6.015625 L 6.1875 -15.234375 L 8.828125 -14.5 L 6.234375 -5.28125 C 5.867188 -3.96875 5.957031 -2.820312 6.5 -1.84375 C 7.039062 -0.875 7.96875 -0.207031 9.28125 0.15625 C 10.5625 0.519531 11.675781 0.429688 12.625 -0.109375 C 13.570312 -0.648438 14.234375 -1.585938 14.609375 -2.921875 L 17.203125 -12.140625 Z M 19.859375 -11.40625 "/></g></g></g><g fill="#122620" fill-opacity="1"><g transform="translate(180.959771, 319.273354)"><g><path d="M 16.3125 0 L 13.609375 0 L 4.90625 -11.71875 L 4.90625 0 L 2.140625 0 L 2.140625 -16.34375 L 4.859375 -16.34375 L 13.609375 -4.59375 L 13.609375 -16.34375 L 16.3125 -16.34375 Z M 16.3125 0 "/></g></g></g><g fill="#122620" fill-opacity="1"><g transform="translate(220.242928, 316.393471)"><g><path d="M -2.359375 -16.3125 L 4.09375 -18.125 C 6.445312 -18.789062 8.597656 -18.59375 10.546875 -17.53125 C 12.503906 -16.476562 13.800781 -14.8125 14.4375 -12.53125 C 15.082031 -10.257812 14.835938 -8.164062 13.703125 -6.25 C 12.578125 -4.332031 10.828125 -3.039062 8.453125 -2.375 L 2.0625 -0.578125 Z M 0.96875 -14.671875 L 4.046875 -3.703125 L 7.921875 -4.78125 C 9.460938 -5.21875 10.597656 -6.09375 11.328125 -7.40625 C 12.066406 -8.71875 12.210938 -10.171875 11.765625 -11.765625 C 11.316406 -13.359375 10.421875 -14.523438 9.078125 -15.265625 C 7.734375 -16.003906 6.28125 -16.15625 4.71875 -15.71875 Z M 0.96875 -14.671875 "/></g></g></g><g fill="#122620" fill-opacity="1"><g transform="translate(256.783463, 303.106579)"><g><path d="M 4.796875 -18.96875 L -2.859375 -14.40625 L -0.609375 -10.625 L 6.25 -14.71875 L 7.515625 -12.59375 L 0.65625 -8.5 L 2.953125 -4.625 L 10.84375 -9.328125 L 12.109375 -7.203125 L 1.84375 -1.09375 L -6.5 -15.140625 L 3.53125 -21.109375 Z M 4.796875 -18.96875 "/></g></g></g><g fill="#122620" fill-opacity="1"><g transform="translate(286.409294, 282.498301)"><g><path d="M 8.765625 -8.921875 L 3.15625 -10.265625 C 3.050781 -10.140625 2.878906 -9.957031 2.640625 -9.71875 L -0.078125 -6.953125 L 3.4375 -3.5 L 1.5 -1.53125 L -10.15625 -12.984375 L -5.5 -17.71875 C -4.039062 -19.207031 -2.5625 -20.019531 -1.0625 -20.15625 C 0.4375 -20.289062 1.820312 -19.738281 3.09375 -18.5 C 4.019531 -17.582031 4.597656 -16.597656 4.828125 -15.546875 C 5.066406 -14.492188 4.953125 -13.429688 4.484375 -12.359375 L 10.96875 -11.15625 Z M -1.84375 -8.6875 L 0.875 -11.453125 C 2.726562 -13.335938 2.875 -15.046875 1.3125 -16.578125 C -0.195312 -18.066406 -1.878906 -17.867188 -3.734375 -15.984375 L -6.453125 -13.21875 Z M -1.84375 -8.6875 "/></g></g></g></svg>